<svg version="1.1" xmlns="http://www.w3.org/2000/svg" viewBox="236 144 258 415">
  <!-- Presa B+ Logo - Colored (transparent background) -->
  <!-- Colors extracted from original logo.jpeg -->

  <!-- Hold (yellow) -->
  <path fill="#F8DA00" stroke="none" d="
M329.817505,352.156738 
	C326.712189,351.965240 323.662994,350.908966 320.524841,352.513306 
	C306.292114,359.789673 292.007019,366.963898 277.715088,374.123596 
	C275.640839,375.162720 274.328918,376.657715 273.593872,378.846832 
	C267.192627,397.910522 260.776001,416.969177 254.296951,436.006500 
	C253.364914,438.745056 253.909485,440.600647 256.227264,442.474121 
	C274.756378,457.451080 293.211426,472.519928 311.637451,487.623749 
	C313.645996,489.270172 315.519470,489.516266 318.050934,488.967957 
	C339.031189,484.423035 360.046539,480.039795 381.054749,475.624359 
	C383.561554,475.097443 385.709839,473.900513 387.756927,472.416962 
	C401.514862,462.445984 415.288483,452.496704 429.054138,442.536377 
	C430.397308,441.564484 432.352905,440.732239 432.432190,439.043365 
	C432.761871,432.023682 434.719452,424.729553 429.578430,418.430725 
	C413.146973,398.298767 396.739288,378.147369 380.318146,358.006989 
	C378.707123,356.031097 376.966675,354.484528 374.115479,354.357147 
	C359.646667,353.710663 345.184235,352.922241 329.817505,352.156738
  "/>

  <!-- Hand (red) -->
  <path fill="#C80031" stroke="none" d="
M464.122070,542.776611 
	C467.035309,540.251282 466.258942,536.632874 466.630920,533.480713 
	C468.405212,518.444946 469.911194,503.377655 471.547699,488.325439 
	C473.597748,469.469543 475.661621,450.615112 477.769867,431.765686 
	C478.158112,428.294861 477.417725,425.389679 475.301483,422.451263 
	C464.400269,407.314636 452.780426,392.732178 441.391327,377.972076 
	C428.168884,360.835968 414.869354,343.759277 401.688354,326.591431 
	C399.407166,323.620239 396.789612,321.888916 392.943726,321.716003 
	C382.803711,321.260071 372.663513,320.721497 362.543091,319.955139 
	C357.822205,319.597687 353.722046,320.590698 349.880615,323.355408 
	C344.749451,327.048370 339.460480,330.521606 334.259979,334.119110 
	C332.945679,335.028259 331.257385,335.749298 331.733215,338.174042 
	C334.391113,339.444397 337.344666,339.632721 340.313293,339.747467 
	C350.962463,340.159088 361.608856,340.744904 372.261963,340.919678 
	C379.781403,341.043030 385.372223,343.742493 390.152740,349.849487 
	C403.595093,367.021759 417.830505,383.573334 431.269592,400.748108 
	C447.059906,420.927582 444.865417,412.675385 445.293488,439.292114 
	C445.370972,444.107971 443.468719,447.503906 439.669189,450.270782 
	C429.175110,457.912659 418.965912,465.961304 408.274261,473.311157 
	C400.262695,478.818665 393.181030,485.936829 383.060913,488.075531 
	C366.612427,491.551575 350.237823,495.377594 333.838226,499.083344 
	C332.303497,499.430145 330.412109,499.279358 329.734680,501.609833 
	C333.869507,505.247589 338.199768,507.896545 344.225189,507.978210 
	C363.705658,508.242126 383.199585,507.435760 402.668335,508.645508 
	C408.956635,509.036285 411.264862,511.047058 411.988251,517.342712 
	C412.424805,521.142212 412.296173,525.014648 412.856232,528.789856 
	C413.550873,533.471924 410.998444,539.444519 414.828827,542.586914 
	C418.628479,545.704163 424.494049,543.778931 429.430054,543.758606 
	C440.736298,543.712097 452.071045,544.635742 464.122070,542.776611
  "/>

  <!-- Forearm (purple) -->
  <path fill="#8A00DA" stroke="none" d="
M340.343170,257.884888 
	C340.673676,256.428314 340.915894,254.944992 341.347748,253.519119 
	C349.574524,226.357437 357.789642,199.192078 366.113739,172.060211 
	C367.089691,168.879120 366.038696,167.367981 363.100250,166.526276 
	C359.100586,165.380554 355.022736,164.405426 351.170471,162.874069 
	C346.587585,161.052277 344.715179,163.312836 343.458771,167.120911 
	C333.260742,198.030243 323.130463,228.962158 312.837128,259.839722 
	C303.328064,288.364716 293.581757,316.810730 284.116150,345.349976 
	C282.985016,348.760406 280.403229,352.064331 281.955200,356.644409 
	C293.088745,351.527679 303.863434,346.412659 314.252380,340.521637 
	C315.280853,339.938477 316.092773,338.535706 316.485535,337.342285 
	C318.610901,330.884369 320.792664,324.431519 322.549652,317.868408 
	C327.875427,297.974518 334.012817,278.325806 340.343170,257.884888
  "/>

  <!-- Shadow detail -->
  <path fill="#9A0028" stroke="none" d="
M403.237061,301.291962 
	C400.078369,301.194885 396.908936,301.228943 393.763397,300.971222 
	C388.508148,300.540741 385.208618,303.364777 381.990723,307.389008 
	C385.975861,308.592224 389.601532,308.636169 393.217316,308.819031 
	C400.167023,309.170502 405.814178,311.489868 410.266693,317.459412 
	C423.078766,334.636658 436.340546,351.478638 449.451996,368.431976 
	C450.195099,369.392853 450.637970,370.881927 452.607788,370.658112 
	C452.558319,369.998871 452.685608,369.299347 452.440491,368.773346 
	C442.968506,348.445251 433.412262,328.156219 424.004150,307.798706 
	C422.171570,303.833374 419.537567,301.983887 415.109192,302.088501 
	C411.473419,302.174377 407.822205,301.607422 403.237061,301.291962
  "/>

  <!-- Small detail -->
  <path fill="#9A0028" stroke="none" d="
M448.751343,330.756012 
	C449.655487,332.467590 450.559631,334.179169 451.463776,335.890747 
	C450.662384,329.315308 449.023010,323.023712 446.985931,316.863678 
	C446.324127,314.862274 444.315125,314.154297 441.570587,315.246185 
	C443.698181,320.426208 445.631042,325.449341 448.751343,330.756012
  "/>

  <!-- Outline - compound path -->
  <path fill="#000000" opacity="1" stroke="none" d="
M480.073547,536.780518 
	C479.610687,541.045410 479.294891,544.865601 478.745087,548.651794 
	C477.911865,554.389526 475.312347,556.990112 469.474335,557.036926 
	C449.981689,557.192993 430.485687,557.245300 410.993988,557.043396 
	C403.208466,556.962708 400.221558,553.693726 399.947144,545.846436 
	C399.731812,539.688232 399.629211,533.509888 399.879822,527.356934 
	C400.062592,522.870422 398.622101,521.223755 393.909607,521.276550 
	C375.917664,521.478088 357.920807,521.199524 339.926910,521.298523 
	C334.462616,521.328552 330.035034,519.602722 325.800751,516.138184 
	C298.471649,493.776947 271.018707,471.566956 243.583328,449.335846 
	C238.779312,445.443146 238.031769,442.964325 240.303329,436.143890 
	C252.984192,398.069122 265.708923,360.009003 278.401886,321.938263 
	C296.467346,267.753479 314.517548,213.563583 332.578644,159.377350 
	C333.157715,157.640152 333.690125,155.878662 334.406403,154.197586 
	C336.773743,148.641815 340.605225,146.391449 346.364136,147.958099 
	C355.838623,150.535522 365.238464,153.414978 374.578064,156.449387 
	C379.679230,158.106750 381.610565,161.562057 380.536041,166.985992 
	C377.653656,181.535553 372.623993,195.500763 368.481720,209.703613 
	C361.216949,234.612717 353.622559,259.425659 346.177277,284.282135 
	C343.360413,293.686310 340.570618,303.098602 337.780579,312.510773 
	C337.549805,313.289368 337.197723,314.098022 337.990234,315.128693 
	C340.209686,315.170624 341.658081,313.403473 343.311188,312.201843 
	C347.974731,308.811981 352.743591,305.892212 358.897552,306.762512 
	C361.051727,307.067139 362.721893,305.912628 364.289215,304.592682 
	C367.347443,302.017212 370.674377,299.707214 373.446503,296.856079 
	C380.674866,289.421539 389.043793,286.200653 399.521881,287.742615 
	C406.410980,288.756409 413.465515,288.674957 420.449707,289.005127 
	C426.247314,289.279236 430.856842,291.436890 433.094269,297.090942 
	C434.560272,300.795593 437.159424,301.720795 440.925446,301.729767 
	C456.802490,301.767639 456.955261,301.819427 461.185638,316.899414 
	C469.723053,347.332581 477.230927,378.088226 486.865021,408.165833 
	C491.639343,423.071075 490.301056,437.218994 488.684509,451.914978 
	C486.338318,473.244324 484.313965,494.609070 482.155914,515.959106 
	C481.469940,522.745667 480.795502,529.533386 480.073547,536.780518
M329.817505,352.156738 
	C326.712189,351.965240 323.662994,350.908966 320.524841,352.513306 
	C306.292114,359.789673 292.007019,366.963898 277.715088,374.123596 
	C275.640839,375.162720 274.328918,376.657715 273.593872,378.846832 
	C267.192627,397.910522 260.776001,416.969177 254.296951,436.006500 
	C253.364914,438.745056 253.909485,440.600647 256.227264,442.474121 
	C274.756378,457.451080 293.211426,472.519928 311.637451,487.623749 
	C313.645996,489.270172 315.519470,489.516266 318.050934,488.967957 
	C339.031189,484.423035 360.046539,480.039795 381.054749,475.624359 
	C383.561554,475.097443 385.709839,473.900513 387.756927,472.416962 
	C401.514862,462.445984 415.288483,452.496704 429.054138,442.536377 
	C430.397308,441.564484 432.352905,440.732239 432.432190,439.043365 
	C432.761871,432.023682 434.719452,424.729553 429.578430,418.430725 
	C413.146973,398.298767 396.739288,378.147369 380.318146,358.006989 
	C378.707123,356.031097 376.966675,354.484528 374.115479,354.357147 
	C359.646667,353.710663 345.184235,352.922241 329.817505,352.156738
M464.122070,542.776611 
	C467.035309,540.251282 466.258942,536.632874 466.630920,533.480713 
	C468.405212,518.444946 469.911194,503.377655 471.547699,488.325439 
	C473.597748,469.469543 475.661621,450.615112 477.769867,431.765686 
	C478.158112,428.294861 477.417725,425.389679 475.301483,422.451263 
	C464.400269,407.314636 452.780426,392.732178 441.391327,377.972076 
	C428.168884,360.835968 414.869354,343.759277 401.688354,326.591431 
	C399.407166,323.620239 396.789612,321.888916 392.943726,321.716003 
	C382.803711,321.260071 372.663513,320.721497 362.543091,319.955139 
	C357.822205,319.597687 353.722046,320.590698 349.880615,323.355408 
	C344.749451,327.048370 339.460480,330.521606 334.259979,334.119110 
	C332.945679,335.028259 331.257385,335.749298 331.733215,338.174042 
	C334.391113,339.444397 337.344666,339.632721 340.313293,339.747467 
	C350.962463,340.159088 361.608856,340.744904 372.261963,340.919678 
	C379.781403,341.043030 385.372223,343.742493 390.152740,349.849487 
	C403.595093,367.021759 417.830505,383.573334 431.269592,400.748108 
	C447.059906,420.927582 444.865417,412.675385 445.293488,439.292114 
	C445.370972,444.107971 443.468719,447.503906 439.669189,450.270782 
	C429.175110,457.912659 418.965912,465.961304 408.274261,473.311157 
	C400.262695,478.818665 393.181030,485.936829 383.060913,488.075531 
	C366.612427,491.551575 350.237823,495.377594 333.838226,499.083344 
	C332.303497,499.430145 330.412109,499.279358 329.734680,501.609833 
	C333.869507,505.247589 338.199768,507.896545 344.225189,507.978210 
	C363.705658,508.242126 383.199585,507.435760 402.668335,508.645508 
	C408.956635,509.036285 411.264862,511.047058 411.988251,517.342712 
	C412.424805,521.142212 412.296173,525.014648 412.856232,528.789856 
	C413.550873,533.471924 410.998444,539.444519 414.828827,542.586914 
	C418.628479,545.704163 424.494049,543.778931 429.430054,543.758606 
	C440.736298,543.712097 452.071045,544.635742 464.122070,542.776611
M340.343170,257.884888 
	C340.673676,256.428314 340.915894,254.944992 341.347748,253.519119 
	C349.574524,226.357437 357.789642,199.192078 366.113739,172.060211 
	C367.089691,168.879120 366.038696,167.367981 363.100250,166.526276 
	C359.100586,165.380554 355.022736,164.405426 351.170471,162.874069 
	C346.587585,161.052277 344.715179,163.312836 343.458771,167.120911 
	C333.260742,198.030243 323.130463,228.962158 312.837128,259.839722 
	C303.328064,288.364716 293.581757,316.810730 284.116150,345.349976 
	C282.985016,348.760406 280.403229,352.064331 281.955200,356.644409 
	C293.088745,351.527679 303.863434,346.412659 314.252380,340.521637 
	C315.280853,339.938477 316.092773,338.535706 316.485535,337.342285 
	C318.610901,330.884369 320.792664,324.431519 322.549652,317.868408 
	C327.875427,297.974518 334.012817,278.325806 340.343170,257.884888
M403.237061,301.291962 
	C400.078369,301.194885 396.908936,301.228943 393.763397,300.971222 
	C388.508148,300.540741 385.208618,303.364777 381.990723,307.389008 
	C385.975861,308.592224 389.601532,308.636169 393.217316,308.819031 
	C400.167023,309.170502 405.814178,311.489868 410.266693,317.459412 
	C423.078766,334.636658 436.340546,351.478638 449.451996,368.431976 
	C450.195099,369.392853 450.637970,370.881927 452.607788,370.658112 
	C452.558319,369.998871 452.685608,369.299347 452.440491,368.773346 
	C442.968506,348.445251 433.412262,328.156219 424.004150,307.798706 
	C422.171570,303.833374 419.537567,301.983887 415.109192,302.088501 
	C411.473419,302.174377 407.822205,301.607422 403.237061,301.291962
M448.751343,330.756012 
	C449.655487,332.467590 450.559631,334.179169 451.463776,335.890747 
	C450.662384,329.315308 449.023010,323.023712 446.985931,316.863678 
	C446.324127,314.862274 444.315125,314.154297 441.570587,315.246185 
	C443.698181,320.426208 445.631042,325.449341 448.751343,330.756012
  "/>
</svg>
